<mxfile host="app.diagrams.net" agent="Mozilla/5.0 (Macintosh; Intel Mac OS X 10_15_7) AppleWebKit/537.36 (KHTML, like Gecko) Chrome/128.0.0.0 Safari/537.36" version="24.7.7" pages="2">
  <diagram name="Page-1" id="v_R_F0UWH21VeL4HUXk-">
    <mxGraphModel dx="954" dy="1431" grid="1" gridSize="10" guides="1" tooltips="1" connect="1" arrows="1" fold="1" page="1" pageScale="1" pageWidth="1100" pageHeight="850" math="1" shadow="0">
      <root>
        <mxCell id="0" />
        <mxCell id="1" parent="0" />
        <mxCell id="eya-moU7Oqs60QasNBf9-81" value="" style="rounded=1;whiteSpace=wrap;html=1;fillColor=none;dashed=1;" parent="1" vertex="1">
          <mxGeometry x="920" y="-40" width="160" height="420" as="geometry" />
        </mxCell>
        <mxCell id="eya-moU7Oqs60QasNBf9-46" value="" style="rounded=1;whiteSpace=wrap;html=1;fillColor=none;dashed=1;" parent="1" vertex="1">
          <mxGeometry y="-40" width="720" height="420" as="geometry" />
        </mxCell>
        <mxCell id="eya-moU7Oqs60QasNBf9-6" value="" style="edgeStyle=orthogonalEdgeStyle;rounded=0;orthogonalLoop=1;jettySize=auto;html=1;" parent="1" source="eya-moU7Oqs60QasNBf9-3" target="eya-moU7Oqs60QasNBf9-5" edge="1">
          <mxGeometry relative="1" as="geometry" />
        </mxCell>
        <mxCell id="eya-moU7Oqs60QasNBf9-3" value="Task `1`&lt;div&gt;(USD/JPY)&lt;/div&gt;" style="rounded=0;whiteSpace=wrap;html=1;" parent="1" vertex="1">
          <mxGeometry x="90" width="120" height="60" as="geometry" />
        </mxCell>
        <mxCell id="eya-moU7Oqs60QasNBf9-20" value="" style="edgeStyle=orthogonalEdgeStyle;rounded=0;orthogonalLoop=1;jettySize=auto;html=1;" parent="1" source="eya-moU7Oqs60QasNBf9-5" target="eya-moU7Oqs60QasNBf9-19" edge="1">
          <mxGeometry relative="1" as="geometry" />
        </mxCell>
        <mxCell id="eya-moU7Oqs60QasNBf9-5" value="LSTM+CNN&lt;div&gt;on Support&lt;/div&gt;" style="rounded=0;whiteSpace=wrap;html=1;" parent="1" vertex="1">
          <mxGeometry x="90" y="140" width="120" height="60" as="geometry" />
        </mxCell>
        <mxCell id="eya-moU7Oqs60QasNBf9-8" style="edgeStyle=orthogonalEdgeStyle;rounded=0;orthogonalLoop=1;jettySize=auto;html=1;" parent="1" source="eya-moU7Oqs60QasNBf9-67" target="eya-moU7Oqs60QasNBf9-5" edge="1">
          <mxGeometry relative="1" as="geometry">
            <mxPoint x="60" y="170" as="sourcePoint" />
          </mxGeometry>
        </mxCell>
        <mxCell id="eya-moU7Oqs60QasNBf9-52" style="edgeStyle=orthogonalEdgeStyle;rounded=0;orthogonalLoop=1;jettySize=auto;html=1;entryX=0.5;entryY=1;entryDx=0;entryDy=0;" parent="1" source="eya-moU7Oqs60QasNBf9-19" target="eya-moU7Oqs60QasNBf9-57" edge="1">
          <mxGeometry relative="1" as="geometry">
            <mxPoint x="839.9565217391305" y="318.0000000000001" as="targetPoint" />
            <Array as="points">
              <mxPoint x="150" y="370" />
              <mxPoint x="820" y="370" />
            </Array>
          </mxGeometry>
        </mxCell>
        <mxCell id="eya-moU7Oqs60QasNBf9-19" value="LSTM+CNN&lt;div&gt;on Query&lt;/div&gt;" style="whiteSpace=wrap;html=1;rounded=0;" parent="1" vertex="1">
          <mxGeometry x="90" y="280" width="120" height="60" as="geometry" />
        </mxCell>
        <mxCell id="eya-moU7Oqs60QasNBf9-21" value="" style="edgeStyle=orthogonalEdgeStyle;rounded=0;orthogonalLoop=1;jettySize=auto;html=1;" parent="1" source="eya-moU7Oqs60QasNBf9-22" target="eya-moU7Oqs60QasNBf9-24" edge="1">
          <mxGeometry relative="1" as="geometry" />
        </mxCell>
        <mxCell id="eya-moU7Oqs60QasNBf9-22" value="Task `2`&lt;div&gt;(AUD/CAD)&lt;/div&gt;" style="rounded=0;whiteSpace=wrap;html=1;" parent="1" vertex="1">
          <mxGeometry x="300" width="120" height="60" as="geometry" />
        </mxCell>
        <mxCell id="eya-moU7Oqs60QasNBf9-23" value="" style="edgeStyle=orthogonalEdgeStyle;rounded=0;orthogonalLoop=1;jettySize=auto;html=1;" parent="1" source="eya-moU7Oqs60QasNBf9-24" target="eya-moU7Oqs60QasNBf9-27" edge="1">
          <mxGeometry relative="1" as="geometry" />
        </mxCell>
        <mxCell id="eya-moU7Oqs60QasNBf9-24" value="LSTM+CNN&lt;div&gt;on Support&lt;/div&gt;" style="rounded=0;whiteSpace=wrap;html=1;" parent="1" vertex="1">
          <mxGeometry x="300" y="140" width="120" height="60" as="geometry" />
        </mxCell>
        <mxCell id="eya-moU7Oqs60QasNBf9-25" style="edgeStyle=orthogonalEdgeStyle;rounded=0;orthogonalLoop=1;jettySize=auto;html=1;" parent="1" target="eya-moU7Oqs60QasNBf9-24" edge="1">
          <mxGeometry relative="1" as="geometry">
            <mxPoint x="270" y="170" as="sourcePoint" />
          </mxGeometry>
        </mxCell>
        <mxCell id="eya-moU7Oqs60QasNBf9-53" style="edgeStyle=orthogonalEdgeStyle;rounded=0;orthogonalLoop=1;jettySize=auto;html=1;exitX=0.5;exitY=1;exitDx=0;exitDy=0;endArrow=none;endFill=0;" parent="1" source="eya-moU7Oqs60QasNBf9-27" edge="1">
          <mxGeometry relative="1" as="geometry">
            <mxPoint x="360" y="370" as="targetPoint" />
          </mxGeometry>
        </mxCell>
        <mxCell id="eya-moU7Oqs60QasNBf9-27" value="LSTM+CNN&lt;div&gt;on Query&lt;/div&gt;" style="whiteSpace=wrap;html=1;rounded=0;" parent="1" vertex="1">
          <mxGeometry x="300" y="280" width="120" height="60" as="geometry" />
        </mxCell>
        <mxCell id="eya-moU7Oqs60QasNBf9-28" value="" style="edgeStyle=orthogonalEdgeStyle;rounded=0;orthogonalLoop=1;jettySize=auto;html=1;" parent="1" source="eya-moU7Oqs60QasNBf9-29" target="eya-moU7Oqs60QasNBf9-31" edge="1">
          <mxGeometry relative="1" as="geometry" />
        </mxCell>
        <mxCell id="eya-moU7Oqs60QasNBf9-29" value="Task `n`&lt;div&gt;(NZD/AUD)&lt;/div&gt;" style="rounded=0;whiteSpace=wrap;html=1;" parent="1" vertex="1">
          <mxGeometry x="580" width="120" height="60" as="geometry" />
        </mxCell>
        <mxCell id="eya-moU7Oqs60QasNBf9-30" value="" style="edgeStyle=orthogonalEdgeStyle;rounded=0;orthogonalLoop=1;jettySize=auto;html=1;" parent="1" source="eya-moU7Oqs60QasNBf9-31" target="eya-moU7Oqs60QasNBf9-34" edge="1">
          <mxGeometry relative="1" as="geometry" />
        </mxCell>
        <mxCell id="eya-moU7Oqs60QasNBf9-31" value="LSTM+CNN&lt;div&gt;on Support&lt;/div&gt;" style="rounded=0;whiteSpace=wrap;html=1;" parent="1" vertex="1">
          <mxGeometry x="580" y="140" width="120" height="60" as="geometry" />
        </mxCell>
        <mxCell id="eya-moU7Oqs60QasNBf9-32" style="edgeStyle=orthogonalEdgeStyle;rounded=0;orthogonalLoop=1;jettySize=auto;html=1;" parent="1" target="eya-moU7Oqs60QasNBf9-31" edge="1">
          <mxGeometry relative="1" as="geometry">
            <mxPoint x="550" y="170" as="sourcePoint" />
          </mxGeometry>
        </mxCell>
        <mxCell id="eya-moU7Oqs60QasNBf9-54" style="edgeStyle=orthogonalEdgeStyle;rounded=0;orthogonalLoop=1;jettySize=auto;html=1;exitX=0.5;exitY=1;exitDx=0;exitDy=0;endArrow=none;endFill=0;" parent="1" source="eya-moU7Oqs60QasNBf9-34" edge="1">
          <mxGeometry relative="1" as="geometry">
            <mxPoint x="640" y="370" as="targetPoint" />
          </mxGeometry>
        </mxCell>
        <mxCell id="eya-moU7Oqs60QasNBf9-34" value="LSTM+CNN&lt;div&gt;on Query&lt;/div&gt;" style="whiteSpace=wrap;html=1;rounded=0;" parent="1" vertex="1">
          <mxGeometry x="580" y="280" width="120" height="60" as="geometry" />
        </mxCell>
        <mxCell id="eya-moU7Oqs60QasNBf9-35" value="&lt;font style=&quot;font-size: 52px;&quot;&gt;...&lt;/font&gt;" style="text;html=1;align=center;verticalAlign=middle;resizable=0;points=[];autosize=1;strokeColor=none;fillColor=none;" parent="1" vertex="1">
          <mxGeometry x="430" y="120" width="70" height="80" as="geometry" />
        </mxCell>
        <mxCell id="eya-moU7Oqs60QasNBf9-36" value="`\mathbf x_{t-L:t}, y`" style="text;html=1;align=center;verticalAlign=middle;resizable=0;points=[];autosize=1;strokeColor=none;fillColor=none;" parent="1" vertex="1">
          <mxGeometry x="120" y="90" width="130" height="30" as="geometry" />
        </mxCell>
        <mxCell id="eya-moU7Oqs60QasNBf9-37" value="`\mathbf x_{t-L:t}, y`" style="text;html=1;align=center;verticalAlign=middle;resizable=0;points=[];autosize=1;strokeColor=none;fillColor=none;" parent="1" vertex="1">
          <mxGeometry x="330" y="90" width="130" height="30" as="geometry" />
        </mxCell>
        <mxCell id="eya-moU7Oqs60QasNBf9-38" value="`\mathbf x_{t-L:t}, y`" style="text;html=1;align=center;verticalAlign=middle;resizable=0;points=[];autosize=1;strokeColor=none;fillColor=none;" parent="1" vertex="1">
          <mxGeometry x="610" y="90" width="130" height="30" as="geometry" />
        </mxCell>
        <mxCell id="eya-moU7Oqs60QasNBf9-41" value="$$\theta_n^*$$" style="text;html=1;align=center;verticalAlign=middle;resizable=0;points=[];autosize=1;strokeColor=none;fillColor=none;" parent="1" vertex="1">
          <mxGeometry x="615" y="228" width="100" height="30" as="geometry" />
        </mxCell>
        <mxCell id="eya-moU7Oqs60QasNBf9-50" value="$$\theta_2^*$$" style="text;html=1;align=center;verticalAlign=middle;resizable=0;points=[];autosize=1;strokeColor=none;fillColor=none;" parent="1" vertex="1">
          <mxGeometry x="330" y="228" width="100" height="30" as="geometry" />
        </mxCell>
        <mxCell id="eya-moU7Oqs60QasNBf9-51" value="$$\theta_1^*$$" style="text;html=1;align=center;verticalAlign=middle;resizable=0;points=[];autosize=1;strokeColor=none;fillColor=none;" parent="1" vertex="1">
          <mxGeometry x="120" y="228" width="100" height="30" as="geometry" />
        </mxCell>
        <mxCell id="eya-moU7Oqs60QasNBf9-62" value="" style="edgeStyle=orthogonalEdgeStyle;rounded=0;orthogonalLoop=1;jettySize=auto;html=1;" parent="1" source="eya-moU7Oqs60QasNBf9-57" target="eya-moU7Oqs60QasNBf9-61" edge="1">
          <mxGeometry relative="1" as="geometry" />
        </mxCell>
        <mxCell id="eya-moU7Oqs60QasNBf9-57" value="$$\mathcal L_{meta} = \sum_t^n{\mathcal{L}^{meta}_t}$$" style="whiteSpace=wrap;html=1;fillColor=none;" parent="1" vertex="1">
          <mxGeometry x="760" y="280" width="120" height="60" as="geometry" />
        </mxCell>
        <mxCell id="eya-moU7Oqs60QasNBf9-59" value="$$\mathcal L^{meta}_1$$" style="text;html=1;align=center;verticalAlign=middle;resizable=0;points=[];autosize=1;strokeColor=none;fillColor=none;" parent="1" vertex="1">
          <mxGeometry x="90" y="340" width="160" height="30" as="geometry" />
        </mxCell>
        <mxCell id="eya-moU7Oqs60QasNBf9-60" value="$$\mathcal L^{meta}_2$$" style="text;html=1;align=center;verticalAlign=middle;resizable=0;points=[];autosize=1;strokeColor=none;fillColor=none;" parent="1" vertex="1">
          <mxGeometry x="300" y="340" width="160" height="30" as="geometry" />
        </mxCell>
        <mxCell id="eya-moU7Oqs60QasNBf9-75" value="" style="edgeStyle=orthogonalEdgeStyle;rounded=0;orthogonalLoop=1;jettySize=auto;html=1;" parent="1" source="eya-moU7Oqs60QasNBf9-61" target="eya-moU7Oqs60QasNBf9-74" edge="1">
          <mxGeometry relative="1" as="geometry" />
        </mxCell>
        <mxCell id="eya-moU7Oqs60QasNBf9-61" value="Outer&lt;div&gt;optimization&lt;/div&gt;" style="whiteSpace=wrap;html=1;fillColor=#ffe6cc;strokeColor=#d79b00;" parent="1" vertex="1">
          <mxGeometry x="760" y="140" width="120" height="60" as="geometry" />
        </mxCell>
        <mxCell id="eya-moU7Oqs60QasNBf9-63" value="" style="endArrow=classic;html=1;rounded=0;exitX=0;exitY=0.5;exitDx=0;exitDy=0;entryX=1;entryY=0.5;entryDx=0;entryDy=0;" parent="1" source="eya-moU7Oqs60QasNBf9-61" target="eya-moU7Oqs60QasNBf9-46" edge="1">
          <mxGeometry width="50" height="50" relative="1" as="geometry">
            <mxPoint x="510" y="250" as="sourcePoint" />
            <mxPoint x="560" y="200" as="targetPoint" />
          </mxGeometry>
        </mxCell>
        <mxCell id="eya-moU7Oqs60QasNBf9-64" value="$$\phi^*$$" style="text;html=1;align=center;verticalAlign=middle;resizable=0;points=[];autosize=1;strokeColor=none;fillColor=none;" parent="1" vertex="1">
          <mxGeometry x="700" y="140" width="80" height="30" as="geometry" />
        </mxCell>
        <mxCell id="eya-moU7Oqs60QasNBf9-67" value="$$\phi^*$$" style="whiteSpace=wrap;html=1;fillColor=#ffe6cc;strokeColor=#d79b00;" parent="1" vertex="1">
          <mxGeometry x="20" y="155" width="40" height="30" as="geometry" />
        </mxCell>
        <mxCell id="eya-moU7Oqs60QasNBf9-68" value="$$\phi^*$$" style="whiteSpace=wrap;html=1;fillColor=#ffe6cc;strokeColor=#d79b00;" parent="1" vertex="1">
          <mxGeometry x="230" y="155" width="40" height="30" as="geometry" />
        </mxCell>
        <mxCell id="eya-moU7Oqs60QasNBf9-69" value="$$\phi^*$$" style="whiteSpace=wrap;html=1;fillColor=#ffe6cc;strokeColor=#d79b00;" parent="1" vertex="1">
          <mxGeometry x="510" y="155" width="40" height="30" as="geometry" />
        </mxCell>
        <mxCell id="eya-moU7Oqs60QasNBf9-73" value="&lt;font style=&quot;font-size: 17px;&quot;&gt;Meta-train&lt;/font&gt;" style="text;html=1;align=center;verticalAlign=middle;whiteSpace=wrap;rounded=0;fillColor=default;strokeColor=default;" parent="1" vertex="1">
          <mxGeometry x="305" y="-60" width="110" height="30" as="geometry" />
        </mxCell>
        <mxCell id="eya-moU7Oqs60QasNBf9-77" value="" style="edgeStyle=orthogonalEdgeStyle;rounded=0;orthogonalLoop=1;jettySize=auto;html=1;startArrow=classic;startFill=1;endArrow=none;endFill=0;" parent="1" source="eya-moU7Oqs60QasNBf9-74" target="eya-moU7Oqs60QasNBf9-76" edge="1">
          <mxGeometry relative="1" as="geometry" />
        </mxCell>
        <mxCell id="eya-moU7Oqs60QasNBf9-80" value="" style="edgeStyle=orthogonalEdgeStyle;rounded=0;orthogonalLoop=1;jettySize=auto;html=1;" parent="1" source="eya-moU7Oqs60QasNBf9-74" target="eya-moU7Oqs60QasNBf9-79" edge="1">
          <mxGeometry relative="1" as="geometry" />
        </mxCell>
        <mxCell id="eya-moU7Oqs60QasNBf9-74" value="LSTM+CNN&lt;div&gt;on Support&lt;/div&gt;" style="whiteSpace=wrap;html=1;fillColor=none;strokeColor=#000000;" parent="1" vertex="1">
          <mxGeometry x="940" y="140" width="120" height="60" as="geometry" />
        </mxCell>
        <mxCell id="eya-moU7Oqs60QasNBf9-76" value="&lt;div&gt;New task&lt;/div&gt;(New currency pair)" style="whiteSpace=wrap;html=1;fillColor=none;strokeColor=#000000;" parent="1" vertex="1">
          <mxGeometry x="940" width="120" height="60" as="geometry" />
        </mxCell>
        <mxCell id="eya-moU7Oqs60QasNBf9-78" value="$$\phi^*$$" style="text;html=1;align=center;verticalAlign=middle;resizable=0;points=[];autosize=1;strokeColor=none;fillColor=none;" parent="1" vertex="1">
          <mxGeometry x="860" y="140" width="80" height="30" as="geometry" />
        </mxCell>
        <mxCell id="eya-moU7Oqs60QasNBf9-79" value="LSTM+CNN&lt;div&gt;on Query&lt;/div&gt;" style="whiteSpace=wrap;html=1;fillColor=none;strokeColor=#000000;" parent="1" vertex="1">
          <mxGeometry x="940" y="280" width="120" height="60" as="geometry" />
        </mxCell>
        <mxCell id="eya-moU7Oqs60QasNBf9-82" value="&lt;font style=&quot;font-size: 17px;&quot;&gt;Meta-test&lt;/font&gt;" style="text;html=1;align=center;verticalAlign=middle;whiteSpace=wrap;rounded=0;fillColor=default;strokeColor=default;" parent="1" vertex="1">
          <mxGeometry x="945" y="-60" width="110" height="30" as="geometry" />
        </mxCell>
        <mxCell id="eya-moU7Oqs60QasNBf9-83" value="$$\theta_{new}^*$$" style="text;html=1;align=center;verticalAlign=middle;resizable=0;points=[];autosize=1;strokeColor=none;fillColor=none;" parent="1" vertex="1">
          <mxGeometry x="965" y="228" width="130" height="30" as="geometry" />
        </mxCell>
        <mxCell id="eya-moU7Oqs60QasNBf9-84" value="$$\mathcal L^{meta}_n$$" style="text;html=1;align=center;verticalAlign=middle;resizable=0;points=[];autosize=1;strokeColor=none;fillColor=none;" parent="1" vertex="1">
          <mxGeometry x="585" y="340" width="160" height="30" as="geometry" />
        </mxCell>
        <mxCell id="g6XhKRvTCH5pXOxBl7ya-1" value="`\mathbf x_{t-L:t}, y`" style="text;html=1;align=center;verticalAlign=middle;resizable=0;points=[];autosize=1;strokeColor=none;fillColor=none;" vertex="1" parent="1">
          <mxGeometry x="970" y="90" width="130" height="30" as="geometry" />
        </mxCell>
      </root>
    </mxGraphModel>
  </diagram>
  <diagram id="iOSP0uNIlM8BRo2-gRkK" name="Page-2">
    <mxGraphModel dx="1434" dy="761" grid="1" gridSize="10" guides="1" tooltips="1" connect="1" arrows="1" fold="1" page="1" pageScale="1" pageWidth="1100" pageHeight="850" math="0" shadow="0">
      <root>
        <mxCell id="0" />
        <mxCell id="1" parent="0" />
      </root>
    </mxGraphModel>
  </diagram>
</mxfile>
